<?xml version="1.0" encoding="UTF-8" standalone="no"?>
<svg
   xmlns:dc="http://purl.org/dc/elements/1.1/"
   xmlns:cc="http://creativecommons.org/ns#"
   xmlns:rdf="http://www.w3.org/1999/02/22-rdf-syntax-ns#"
   xmlns:svg="http://www.w3.org/2000/svg"
   xmlns="http://www.w3.org/2000/svg"
   xmlns:sodipodi="http://sodipodi.sourceforge.net/DTD/sodipodi-0.dtd"
   xmlns:inkscape="http://www.inkscape.org/namespaces/inkscape"
   version="1.1"
   x="0px"
   y="0px"
   viewBox="0 0 88.199997 53"
   xml:space="preserve"
   id="svg36"
   sodipodi:docname="noun_nintendo switch.svg"
   width="88.199997"
   height="53"
   inkscape:version="0.92.1 r15371"><metadata
     id="metadata42"><rdf:RDF><cc:Work
         rdf:about=""><dc:format>image/svg+xml</dc:format><dc:type
           rdf:resource="http://purl.org/dc/dcmitype/StillImage" /><dc:title></dc:title></cc:Work></rdf:RDF></metadata><defs
     id="defs40" /><sodipodi:namedview
     pagecolor="#ffffff"
     bordercolor="#666666"
     borderopacity="1"
     objecttolerance="10"
     gridtolerance="10"
     guidetolerance="10"
     inkscape:pageopacity="0"
     inkscape:pageshadow="2"
     inkscape:window-width="1920"
     inkscape:window-height="1001"
     id="namedview38"
     showgrid="false"
     fit-margin-top="0"
     fit-margin-left="0"
     fit-margin-right="0"
     fit-margin-bottom="0"
     inkscape:zoom="3.776"
     inkscape:cx="41.368367"
     inkscape:cy="-5.40279"
     inkscape:window-x="-9"
     inkscape:window-y="-9"
     inkscape:window-maximized="1"
     inkscape:current-layer="svg36" /><g
     id="g30"
     transform="translate(-5.9,-23.5)"><path
       d="m 22.5,74.2 h -7 c -4,0 -7.3,-3.3 -7.3,-7.3 V 44.4 c 0,-4 3.3,-7.3 7.3,-7.3 h 7 v -2.2 h 2.3 v -0.1 h -9.3 c -5.3,0 -9.6,4.3 -9.6,9.6 v 22.5 c 0,5.3 4.3,9.6 9.6,9.6 h 7 z"
       id="path2"
       inkscape:connector-curvature="0" /><circle
       cx="15.3"
       cy="45.099998"
       r="3.9000001"
       id="circle4" /><circle
       cx="15.3"
       cy="53.900002"
       r="1.8"
       id="circle6" /><circle
       cx="15.3"
       cy="60.200001"
       r="1.8"
       id="circle8" /><circle
       cx="12.2"
       cy="57"
       r="1.8"
       id="circle10" /><circle
       cx="18.5"
       cy="57"
       r="1.8"
       id="circle12" /><path
       d="m 84.5,23.5 h -9.3 v 11.3 h 2.3 v -9.1 h 7 c 4,0 7.3,3.3 7.3,7.3 v 22.5 c 0,4 -3.3,7.3 -7.3,7.3 h -7 v 2.3 h 7 c 5.3,0 9.6,-4.3 9.6,-9.6 V 33.1 c 0,-5.3 -4.3,-9.6 -9.6,-9.6 z"
       id="path14"
       inkscape:connector-curvature="0" /><circle
       cx="84.699997"
       cy="46.799999"
       r="3.9000001"
       id="circle16" /><circle
       cx="84.699997"
       cy="38.099998"
       r="1.8"
       id="circle18" /><circle
       cx="84.699997"
       cy="31.700001"
       r="1.8"
       id="circle20" /><circle
       cx="87.800003"
       cy="34.900002"
       r="1.8"
       id="circle22" /><circle
       cx="81.5"
       cy="34.900002"
       r="1.8"
       id="circle24" /><path
       d="M 77.5,63 V 34.8 H 75.2 24.8 22.5 v 2.2 37.2 2.3 h 2.3 52.7 V 65.2 Z m -2.3,2.2 v 9 H 24.8 V 37.1 h 50.5 v 28.1 z"
       id="path26"
       inkscape:connector-curvature="0" /><path
       d="M 73.6,38.8 H 26.4 V 72.6 H 73.5 V 38.8 Z M 71.3,70.3 H 28.7 V 41 h 42.6 z"
       id="path28"
       inkscape:connector-curvature="0" /></g><text
     x="-5.9000001"
     y="91.5"
     font-size="5px"
     font-weight="bold"
     id="text32"
     style="font-weight:bold;font-size:5px;font-family:'Helvetica Neue', Helvetica, Arial-Unicode, Arial, Sans-serif;fill:#000000">Created by mikicon</text>
<text
     x="-5.9000001"
     y="96.5"
     font-size="5px"
     font-weight="bold"
     id="text34"
     style="font-weight:bold;font-size:5px;font-family:'Helvetica Neue', Helvetica, Arial-Unicode, Arial, Sans-serif;fill:#000000">from the Noun Project</text>
</svg>