<?xml version="1.0" encoding="UTF-8" standalone="no"?>
<svg
   xmlns:dc="http://purl.org/dc/elements/1.1/"
   xmlns:cc="http://creativecommons.org/ns#"
   xmlns:rdf="http://www.w3.org/1999/02/22-rdf-syntax-ns#"
   xmlns:svg="http://www.w3.org/2000/svg"
   xmlns="http://www.w3.org/2000/svg"
   xmlns:sodipodi="http://sodipodi.sourceforge.net/DTD/sodipodi-0.dtd"
   xmlns:inkscape="http://www.inkscape.org/namespaces/inkscape"
   version="1.1"
   x="0px"
   y="0px"
   viewBox="0 0 50 50"
   enable-background="new 0 0 50 50"
   xml:space="preserve"
   id="svg8"
   sodipodi:docname="noun_ground.svg"
   width="50"
   height="50"
   inkscape:version="0.92.1 r15371"><metadata
     id="metadata14"><rdf:RDF><cc:Work
         rdf:about=""><dc:format>image/svg+xml</dc:format><dc:type
           rdf:resource="http://purl.org/dc/dcmitype/StillImage" /><dc:title /></cc:Work></rdf:RDF></metadata><defs
     id="defs12" /><sodipodi:namedview
     pagecolor="#ffffff"
     bordercolor="#666666"
     borderopacity="1"
     objecttolerance="10"
     gridtolerance="10"
     guidetolerance="10"
     inkscape:pageopacity="0"
     inkscape:pageshadow="2"
     inkscape:window-width="1920"
     inkscape:window-height="1001"
     id="namedview10"
     showgrid="false"
     fit-margin-top="0"
     fit-margin-left="0"
     fit-margin-right="0"
     fit-margin-bottom="0"
     inkscape:zoom="7.552"
     inkscape:cx="14.369346"
     inkscape:cy="39.867251"
     inkscape:window-x="-9"
     inkscape:window-y="-9"
     inkscape:window-maximized="1"
     inkscape:current-layer="g4493" /><g
     id="g4493"><g
       id="g4489"
       transform="translate(-80.258452,-12.546651)"><path
         d="M 46.867585,0.39724576 H 2.8675847 c -1.657,0 -2.99999995,1.34400004 -2.99999995,3.00000004 V 47.397246 c 0,1.657 1.34299995,3 2.99999995,3 H 46.867585 c 1.657,0 3,-1.343 3,-3 V 3.3972458 c 0,-1.656 -1.343,-3.00000004 -3,-3.00000004 z m -20.875,41.56300024 h -2.25 c -0.552,0 -1,-0.446 -1,-1 0,-0.553 0.448,-1 1,-1 h 2.25 c 0.553,0 1,0.447 1,1 0,0.553 -0.447,1 -1,1 z m 4.188,-3.625 h -10.625 c -0.552,0 -1,-0.446 -1,-1 0,-0.553 0.448,-1 1,-1 h 10.625 c 0.553,0 1,0.447 1,1 0,0.553 -0.447,1 -1,1 z m 4.625,-3.25 h -19.875 c -0.552,0 -1,-0.446 -1,-1 0,-0.553 0.448,-1 1,-1 h 19.875 c 0.553,0 1,0.447 1,1 0,0.553 -0.447,1 -1,1 z m 5.632,-3.5 H 9.2965847 c -0.553,0 -1,-0.446 -1,-1 0,-0.553 0.447,-1 1,-1 H 23.867585 V 9.8352458 c 0,-0.552 0.448,-1 1,-1 0.553,0 1,0.448 1,1 V 29.585246 h 14.572 c 0.552,0 0.998,0.447 0.998,1 0,0.553 -0.446,1 -1,1 z"
         id="path2"
         inkscape:connector-curvature="0" /></g><g
       id="g4511"><path
         inkscape:connector-curvature="0"
         id="path4495"
         d="M 9.112026,31.415581 C 8.7569196,31.19904 8.6213412,30.967313 8.6213412,30.576917 c 0,-0.281128 0.034175,-0.390749 0.1734055,-0.556214 0.3590541,-0.426712 -0.1740353,-0.399948 7.9662163,-0.399948 h 7.417914 l 0.01718,-10.080111 c 0.01698,-9.963521 0.01871,-10.0821525 0.149596,-10.2565941 0.202028,-0.2692627 0.449279,-0.386282 0.816179,-0.386282 0.261883,0 0.375962,0.036743 0.538375,0.1734054 0.430005,0.361825 0.399948,-0.430953 0.399948,10.5489427 v 10.000639 l 7.431806,2.65e-4 c 7.298995,2.65e-4 7.435662,0.0026 7.647586,0.13181 0.631491,0.385025 0.631491,1.270881 0,1.655906 -0.213725,0.13031 -0.366494,0.131562 -16.039403,0.131562 -15.3807652,0 -15.8293459,-0.0035 -16.028118,-0.1247 z"
         style="opacity:1;fill:#000000;fill-opacity:1;stroke:#000000;stroke-width:0.199;stroke-linecap:round;stroke-linejoin:round;stroke-miterlimit:4;stroke-dasharray:none;stroke-dashoffset:0;stroke-opacity:1" /><path
         inkscape:connector-curvature="0"
         id="path4497"
         d="m 14.72839,34.917723 c -0.118679,-0.07236 -0.274983,-0.228664 -0.347343,-0.347343 -0.265617,-0.435646 -0.107527,-1.031225 0.347343,-1.308563 0.212847,-0.129775 0.354337,-0.131563 10.411754,-0.131563 10.057417,0 10.198907,0.0018 10.411755,0.131563 0.653827,0.398643 0.625031,1.332056 -0.05158,1.671997 -0.216368,0.108708 -0.849616,0.115752 -10.393278,0.115616 -10.024254,-1.42e-4 -10.165813,-0.0019 -10.378651,-0.131707 z"
         style="opacity:1;fill:#000000;fill-opacity:1;stroke:#000000;stroke-width:0.199;stroke-linecap:round;stroke-linejoin:round;stroke-miterlimit:4;stroke-dasharray:none;stroke-dashoffset:0;stroke-opacity:1" /><path
         inkscape:connector-curvature="0"
         id="path4499"
         d="m 19.374208,38.168759 c -0.355106,-0.216541 -0.490685,-0.448268 -0.490685,-0.838664 0,-0.281128 0.03418,-0.390749 0.173406,-0.556214 0.355544,-0.422541 0.01131,-0.399972 6.096479,-0.3997 5.419432,2.41e-4 5.553184,0.0033 5.763957,0.13181 0.631491,0.385025 0.631491,1.270881 0,1.655906 -0.210793,0.128521 -0.344326,0.131562 -5.777221,0.131562 -5.330224,0 -5.569942,-0.0052 -5.765936,-0.1247 z"
         style="opacity:1;fill:#000000;fill-opacity:1;stroke:#000000;stroke-width:0.199;stroke-linecap:round;stroke-linejoin:round;stroke-miterlimit:4;stroke-dasharray:none;stroke-dashoffset:0;stroke-opacity:1" /><g
         style="fill:#000000;stroke-width:0.199;stroke-miterlimit:4;stroke-dasharray:none;stroke-dashoffset:0;stroke:#000000;stroke-opacity:1"
         id="g4504"><path
           style="opacity:1;fill:#000000;fill-opacity:1;stroke:#000000;stroke-width:0.199;stroke-linecap:round;stroke-linejoin:round;stroke-miterlimit:4;stroke-dasharray:none;stroke-dashoffset:0;stroke-opacity:1"
           d="m 23.585585,41.819408 c -0.628061,-0.315549 -0.709969,-1.098562 -0.167939,-1.605432 0.176291,-0.164856 0.182888,-0.1656 1.646629,-0.185482 1.443488,-0.01961 1.473721,-0.01723 1.699656,0.133735 0.616705,0.412065 0.594971,1.258082 -0.0417,1.623089 -0.243145,0.139397 -0.333879,0.147934 -1.582091,0.148864 -1.129977,8.41e-4 -1.35794,-0.01599 -1.554559,-0.114774 z"
           id="path4501"
           inkscape:connector-curvature="0" /></g></g></g><text
     x="0"
     y="65"
     font-size="5px"
     font-weight="bold"
     id="text4"
     style="font-weight:bold;font-size:5px;font-family:'Helvetica Neue', Helvetica, Arial-Unicode, Arial, Sans-serif;fill:#000000">Created by Adnen Kadri</text>
<text
     x="0"
     y="70"
     font-size="5px"
     font-weight="bold"
     id="text6"
     style="font-weight:bold;font-size:5px;font-family:'Helvetica Neue', Helvetica, Arial-Unicode, Arial, Sans-serif;fill:#000000">from the Noun Project</text>
</svg>