<?xml version="1.0" encoding="UTF-8" standalone="no"?>
<svg
   xmlns:dc="http://purl.org/dc/elements/1.1/"
   xmlns:cc="http://creativecommons.org/ns#"
   xmlns:rdf="http://www.w3.org/1999/02/22-rdf-syntax-ns#"
   xmlns:svg="http://www.w3.org/2000/svg"
   xmlns="http://www.w3.org/2000/svg"
   xmlns:sodipodi="http://sodipodi.sourceforge.net/DTD/sodipodi-0.dtd"
   xmlns:inkscape="http://www.inkscape.org/namespaces/inkscape"
   version="1.1"
   x="0px"
   y="0px"
   viewBox="0 0 87.001793 40.5"
   xml:space="preserve"
   id="svg32"
   sodipodi:docname="noun_nintendo.svg"
   width="87.001793"
   height="40.5"
   inkscape:version="0.92.1 r15371"><metadata
     id="metadata38"><rdf:RDF><cc:Work
         rdf:about=""><dc:format>image/svg+xml</dc:format><dc:type
           rdf:resource="http://purl.org/dc/dcmitype/StillImage" /><dc:title /></cc:Work></rdf:RDF></metadata><defs
     id="defs36" /><sodipodi:namedview
     pagecolor="#ffffff"
     bordercolor="#666666"
     borderopacity="1"
     objecttolerance="10"
     gridtolerance="10"
     guidetolerance="10"
     inkscape:pageopacity="0"
     inkscape:pageshadow="2"
     inkscape:window-width="1920"
     inkscape:window-height="1001"
     id="namedview34"
     showgrid="false"
     fit-margin-top="0"
     fit-margin-left="0"
     fit-margin-right="0"
     fit-margin-bottom="0"
     inkscape:zoom="7.552"
     inkscape:cx="-0.52056455"
     inkscape:cy="19.530875"
     inkscape:window-x="-9"
     inkscape:window-y="-9"
     inkscape:window-maximized="1"
     inkscape:current-layer="svg32" /><g
     id="g26"
     transform="translate(-6.4371195,-29.7)"><circle
       cx="15.3"
       cy="39.5"
       r="3.9000001"
       id="circle2" /><circle
       cx="15.3"
       cy="48.299999"
       r="1.8"
       id="circle4" /><circle
       cx="15.3"
       cy="54.599998"
       r="1.8"
       id="circle6" /><circle
       cx="12.2"
       cy="51.400002"
       r="1.8"
       id="circle8" /><circle
       cx="18.5"
       cy="51.400002"
       r="1.8"
       id="circle10" /><path
       d="M 84.5,29.7 H 76.9 75.8 24.2 23.1 15.5 c -5,0 -9,4 -9,9 v 22.5 c 0,5 4,9 9,9 h 7.6 1.1 51.6 1.1 7.6 c 5,0 9,-4 9,-9 V 38.7 c 0.1,-4.9 -4,-9 -9,-9 z m 7.9,31.6 c 0,4.4 -3.5,7.9 -7.9,7.9 H 76.9 V 30.8 h 7.6 c 4.4,0 7.9,3.5 7.9,7.9 z M 75.8,69.2 H 24.2 V 30.8 h 51.6 z m -52.7,0 h -7.6 c -4.4,0 -7.9,-3.5 -7.9,-7.9 V 38.7 c 0,-4.4 3.5,-7.9 7.9,-7.9 h 7.6 z"
       id="path12"
       inkscape:connector-curvature="0" /><circle
       cx="84.699997"
       cy="52.5"
       r="3.9000001"
       id="circle14" /><circle
       cx="84.699997"
       cy="43.700001"
       r="1.8"
       id="circle16" /><circle
       cx="84.699997"
       cy="37.400002"
       r="1.8"
       id="circle18" /><circle
       cx="87.800003"
       cy="40.5"
       r="1.8"
       id="circle20" /><circle
       cx="81.5"
       cy="40.5"
       r="1.8"
       id="circle22" /><path
       d="M 73,33.7 H 27 V 66.4 H 73 Z M 71.9,65.2 H 28.1 V 34.8 h 43.7 v 30.4 z"
       id="path24"
       inkscape:connector-curvature="0" /></g><text
     x="-6.5"
     y="85.300003"
     font-size="5px"
     font-weight="bold"
     id="text28"
     style="font-weight:bold;font-size:5px;font-family:'Helvetica Neue', Helvetica, Arial-Unicode, Arial, Sans-serif;fill:#000000">Created by mikicon</text>
<text
     x="-6.5"
     y="90.300003"
     font-size="5px"
     font-weight="bold"
     id="text30"
     style="font-weight:bold;font-size:5px;font-family:'Helvetica Neue', Helvetica, Arial-Unicode, Arial, Sans-serif;fill:#000000">from the Noun Project</text>
</svg>