<svg xmlns="http://www.w3.org/2000/svg" xmlns:xlink="http://www.w3.org/1999/xlink" version="1.1" x="0px" y="0px" viewBox="0 0 64 80" enable-background="new 0 0 64 64" xml:space="preserve"><rect x="29" y="26" width="6" height="11"/><rect x="24" y="26" width="4" height="11"/><rect x="36" y="26" width="4" height="11"/><path d="M19,24c-1.104,0-2,0.896-2,2v5h-2.5c-1.379,0-2.5,1.121-2.5,2.5V39h1v-5.5c0-0.827,0.673-1.5,1.5-1.5H17v5  c0,1.104,0.896,2,2,2l4-2V26L19,24z"/><path d="M50,31h-3v-5c0-1.104-0.896-2-2-2l-4,2v11l4,2c1.104,0,2-0.896,2-2v-5h3c0.247,0,1,0,1,1.5V39h1v-5.5  C52,31.935,51.252,31,50,31z"/><text x="0" y="79" fill="#000000" font-size="5px" font-weight="bold" font-family="'Helvetica Neue', Helvetica, Arial-Unicode, Arial, Sans-serif">Created by Souvik Bhattacharjee</text><text x="0" y="84" fill="#000000" font-size="5px" font-weight="bold" font-family="'Helvetica Neue', Helvetica, Arial-Unicode, Arial, Sans-serif">from the Noun Project</text></svg>